<svg width="18" height="18" viewBox="0 0 18 18" fill="none" xmlns="http://www.w3.org/2000/svg">
<path d="M9 0C4.02975 0 0 3.02231 0 6.75C0 8.21784 0.641625 9.56475 1.70813 10.6678C1.72725 10.6943 1.73025 10.7238 1.752 10.7491L7.752 17.4991C8.03025 17.8121 8.499 18 9 18C9.501 18 9.96975 17.8121 10.248 17.4991L16.248 10.7491C16.2701 10.7238 16.2727 10.6943 16.2919 10.6678C17.3584 9.56475 18 8.21784 18 6.75C18 3.02231 13.9702 0 9 0ZM9 9C7.34325 9 6 7.99256 6 6.75C6 5.50744 7.34325 4.5 9 4.5C10.6568 4.5 12 5.50744 12 6.75C12 7.99256 10.6568 9 9 9Z" fill="#231F20"/>
</svg>
