<svg width="18" height="25" viewBox="0 0 18 18" fill="none" xmlns="http://www.w3.org/2000/svg">
<path d="M9 0C6.51825 0 4.5 2.01825 4.5 4.5C4.5 6.72525 6.12524 8.57324 8.25001 8.9325V17.25C8.25001 17.664 8.58526 18 9 18C9.41474 18 9.74999 17.664 9.74999 17.25V8.9325C11.8748 8.57324 13.5 6.72525 13.5 4.5C13.5 2.01825 11.4818 0 9 0ZM8.25001 4.5C7.83601 4.5 7.50002 4.16401 7.50002 3.75001C7.50002 3.33601 7.83601 3.00002 8.25001 3.00002C8.66401 3.00002 9 3.33601 9 3.75001C9 4.16401 8.66401 4.5 8.25001 4.5Z" fill="black"/>
</svg>
