<svg width="18" height="25" viewBox="0 0 18 18" fill="none" xmlns="http://www.w3.org/2000/svg">
<path d="M15.7489 0H2.24887C1.00687 0 0 0.672 0 1.5V16.5C0 17.328 1.00687 18 2.24887 18H15.7489C16.992 18 18 17.328 18 16.5V1.5C18 0.672 16.992 0 15.7489 0ZM5.625 0.75H11.25L11.3198 1.5H5.625V0.75ZM8.97638 16.875C8.35538 16.875 7.85138 16.5397 7.85138 16.125C7.85138 15.7103 8.35538 15.375 8.97638 15.375C9.5985 15.375 10.1014 15.7103 10.1014 16.125C10.1014 16.5397 9.59738 16.875 8.97638 16.875ZM15.7489 14.25H2.24887L2.2725 2.25H15.7489V14.25Z" fill="black"/>
</svg>
