<svg width="18" height="20" viewBox="0 0 18 20" fill="none" xmlns="http://www.w3.org/2000/svg">
<path d="M15.7497 12.5V15.775C15.752 16.0158 15.7073 16.2542 15.6187 16.474C15.5301 16.6937 15.3997 16.8895 15.2365 17.0479C15.0733 17.2063 14.8811 17.3235 14.6732 17.3915C14.4653 17.4595 14.2466 17.4766 14.0322 17.4417C11.0599 17.0174 8.29918 15.5064 6.18495 13.1467C4.07072 10.787 2.7232 7.71273 2.35472 4.40833C2.32339 4.17079 2.33861 3.92853 2.39935 3.69813C2.46009 3.46773 2.56491 3.25463 2.70664 3.07341C2.84837 2.8922 3.02366 2.74714 3.22052 2.64817C3.41738 2.5492 3.63116 2.49866 3.84722 2.5H6.74972C6.93513 2.49875 7.11439 2.57385 7.25289 2.71082C7.3914 2.84778 7.47933 3.0369 7.49972 3.24166C7.57415 4.33381 7.82836 5.4015 8.24972 6.39166C8.32198 6.57918 8.32982 6.78964 8.27176 6.98316C8.21371 7.17668 8.09379 7.33981 7.93472 7.44166L7.28972 7.84999C7.19675 7.90681 7.11569 7.9849 7.05189 8.0791C6.98809 8.17329 6.943 8.28146 6.91961 8.39646C6.89622 8.51145 6.89505 8.63065 6.91619 8.74618C6.93732 8.86171 6.98028 8.97094 7.04222 9.06666C7.78422 10.2743 8.72284 11.3172 9.80972 12.1417C9.89587 12.2105 9.99418 12.2582 10.0982 12.2817C10.2021 12.3052 10.3094 12.3039 10.4129 12.2779C10.5164 12.2519 10.6138 12.2018 10.6985 12.1309C10.7833 12.06 10.8536 11.97 10.9047 11.8667L11.2722 11.15C11.3694 10.9709 11.5235 10.839 11.7041 10.7803C11.8847 10.7217 12.0786 10.7406 12.2472 10.8333C13.1384 11.3015 14.0993 11.584 15.0822 11.6667C15.2665 11.6893 15.4367 11.787 15.56 11.9409C15.6833 12.0948 15.7508 12.294 15.7497 12.5Z" fill="#231F20"/>
<path d="M15.75 8.33334C15.5511 8.33334 15.3603 8.24554 15.2197 8.08926C15.079 7.93298 15 7.72102 15 7.5C15 6.39494 14.6049 5.33513 13.9017 4.55373C13.1984 3.77233 12.2446 3.33334 11.25 3.33334C11.0511 3.33334 10.8603 3.24554 10.7197 3.08926C10.579 2.93298 10.5 2.72102 10.5 2.50001C10.5 2.27899 10.579 2.06703 10.7197 1.91075C10.8603 1.75447 11.0511 1.66667 11.25 1.66667C12.6424 1.66667 13.9777 2.28125 14.9623 3.37522C15.9469 4.46918 16.5 5.95291 16.5 7.5C16.5 7.72102 16.421 7.93298 16.2803 8.08926C16.1397 8.24554 15.9489 8.33334 15.75 8.33334Z" fill="#231F20"/>
<path d="M12.75 8.33333C12.5511 8.33333 12.3603 8.24554 12.2197 8.08926C12.079 7.93298 12 7.72101 12 7.5C12 7.27899 11.921 7.06702 11.7803 6.91074C11.6397 6.75446 11.4489 6.66667 11.25 6.66667C11.0511 6.66667 10.8603 6.57887 10.7197 6.42259C10.579 6.26631 10.5 6.05435 10.5 5.83333C10.5 5.61232 10.579 5.40036 10.7197 5.24408C10.8603 5.0878 11.0511 5 11.25 5C11.8467 5 12.419 5.26339 12.841 5.73223C13.2629 6.20107 13.5 6.83696 13.5 7.5C13.5 7.72101 13.421 7.93298 13.2803 8.08926C13.1397 8.24554 12.9489 8.33333 12.75 8.33333Z" fill="#231F20"/>
</svg>
